<svg xmlns="http://www.w3.org/2000/svg" xmlns:xlink="http://www.w3.org/1999/xlink" viewBox="14 0 112 112"><defs><style>.a,.g,.k,.l,.m{fill:none;}.b{fill:#fafafa;}.c{fill:#b9b9b9;}.d{clip-path:url(#c);}.e{fill:#e8e8e8;}.f{fill:#fff;}.g,.k{stroke:#343535;stroke-linecap:round;stroke-linejoin:round;}.g{stroke-width:1.451px;}.h,.i{fill:#f90000;}.i{fill-rule:evenodd;}.j{fill:#c2c1c1;}.k,.l{stroke-width:0.622px;}.l{stroke:#c2c1c1;}.l,.m{stroke-miterlimit:10;}.m{stroke:#8d8d8d;stroke-width:0.207px;}.n{font-size:11px;font-family:Skia-Regular, Skia;}.o{filter:url(#a);}</style><filter id="a" x="0" y="55.031" width="148" height="78.969" filterUnits="userSpaceOnUse"><feOffset dx="4" dy="4" input="SourceAlpha"/><feGaussianBlur stdDeviation="6" result="b"/><feFlood flood-color="#9fa5b7" flood-opacity="0.302"/><feComposite operator="in" in2="b"/><feComposite in="SourceGraphic"/></filter><clipPath id="c"><rect class="a" width="90.203" height="80.112" transform="translate(0 0)"/></clipPath></defs><g transform="translate(-250 -291)"><rect class="b" width="112" height="112" rx="38" transform="translate(264 291)"/><g class="o" transform="matrix(1, 0, 0, 1, 250, 291)"><path class="c" d="M74,117H38A37.969,37.969,0,0,1,0,79V74.4A37.97,37.97,0,0,0,38,112H74a37.968,37.968,0,0,0,38-37.969V79a37.968,37.968,0,0,1-38,38Z" transform="translate(14 -5)"/></g><g transform="translate(274.898 306.944)"><g class="d"><path class="e" d="M67.963,54.992s2.46,2.088,1.241,4.315a3.524,3.524,0,0,0,.1,3.861,3.669,3.669,0,0,1-1.081-4.209c.983-2.669-.265-3.967-.265-3.967"/><path class="e" d="M72.8,48s-2.46,2.088-1.242,4.315a3.523,3.523,0,0,1-.1,3.861,3.669,3.669,0,0,0,1.081-4.209C71.553,49.3,72.8,48,72.8,48"/><path class="f" d="M27.251,61.33s2.874-1.08,3.3-2.219"/><path class="g" d="M27.251,61.33s2.874-1.08,3.3-2.219"/><path class="h" d="M63.368,60.554l-.258.252-.262.248-.265.244-.27.24-.273.235L61.763,62l-.28.227-.284.222-.287.218-.291.213-.294.209-.3.2-.3.2-.3.195-.306.189-.31.185-.312.18-.315.175-.318.17-.321.166-.323.16-.326.155-.328.149-.33.145-.332.14-.335.134-.337.129-.339.123-.34.119-.343.113-.344.107-.346.1-.347.1-.349.091-.35.086-.352.08-.352.075-.354.069-.355.064-.356.058L50.348,67l-.357.047-.359.041-.358.035-.36.03-.36.025-.36.018-.36.013-.361.007-.36,0-.361,0-.36-.01-.36-.015-.36-.021-.36-.027-.359-.032-.359-.038-.358-.044-.357-.049-.356-.055-.356-.06-.354-.066-.354-.072-.352-.077-.351-.083-.35-.088-.348-.094-.346-.1-.346-.1-.343-.11-.342-.115-.339-.121L39,65.712l-.336-.131-.334-.137L38,65.3l-.33-.147L37.346,65l-.324-.158-.322-.162-.32-.167-.316-.172-.314-.178-.312-.182L35.13,63.8l-.305-.192-.3-.2-.3-.2-.3-.206-.292-.211-.289-.215-.286-.219-.283-.225L32.5,61.9l-.275-.233-.271-.238-.268-.241-.264-.246-.26-.249-.256-.254-.252-.258-.248-.262-.244-.266-.24-.269-.235-.273-.231-.277-.227-.28L29,58.274l-.218-.288-.213-.29-.209-.295-.2-.3-.2-.3-.2-.3-.189-.307-.185-.309-.181-.313-.175-.315-.17-.318-.165-.32-.16-.323-.155-.326-.15-.328-.144-.33-.14-.333-.134-.334-.129-.337-.124-.339-.118-.34-.113-.343-.107-.344-.1-.346-.1-.347-.092-.349-.085-.35-.08-.352-.075-.353-.069-.354-.064-.355-.058-.355-.052-.357-.047-.358-.041-.358-.036-.359-.03-.359-.024-.36-.018-.36-.013-.36-.008-.361v-.36l0-.361.01-.361.015-.36.021-.36.027-.359.032-.359.038-.359.044-.358.049-.357.055-.357.06-.355.066-.355.072-.353.077-.352.082-.351.089-.35.093-.348.1-.347.1-.345.11-.343.115-.342.121-.34.126-.338.131-.336.136-.333.142-.332.147-.329.152-.327.157-.325.163-.322.167-.319.172-.317.177-.314.183-.311.187-.308.192-.305.2-.3.2-.3.206-.3.21-.292.215-.29.22-.286.224-.282.229-.279.233-.275.237-.272.242-.267.245-.264.25-.26.254-.257,1.244,1.253-.234.237-.231.24-.226.243-.223.248-.219.25-.215.254-.211.258-.207.26-.2.264-.2.267-.194.27-.19.274-.186.276-.182.279-.177.282-.173.284-.168.287-.163.29-.159.293-.155.294-.15.3-.145.3-.14.3-.136.3-.131.306-.126.308-.121.31-.116.312-.111.314-.107.315-.1.317-.1.319-.091.32-.087.321-.081.323-.076.324-.071.325-.066.326-.061.327-.056.329-.051.329-.045.329-.04.331L26.1,42.2l-.03.331-.025.332-.019.332-.015.333L26,43.861l0,.333v.332l.007.333.012.333.017.332.022.332.028.332.033.331.038.331.043.33.048.329.054.329.058.327.064.327.069.326.074.324.079.324.085.322.089.32.094.319.1.318.1.316.109.315.114.312.119.311.124.309.129.307.133.305.138.3.143.3.148.3.153.3.157.294.161.291.167.288.17.286.175.283.18.28.184.278.188.274.193.272.2.268.2.265.205.262.209.259.213.256.218.252.221.249.225.245.229.241.233.238.236.235.24.23.244.227.247.223.251.219.254.215.257.211.261.207.264.2.267.2.27.195.273.19.276.186.279.182.282.177.284.172.288.168.29.164.292.159.295.155.3.149.3.145.3.141.3.135.306.131.308.126.311.121.311.117.314.111.315.107.317.1.319.1.32.092.321.086.323.082.324.076.325.071.327.066.327.061.328.056.329.05.33.046.33.04.331.035.332.03.332.025.332.019.332.014.333.009.333,0h.333l.333-.007.332-.012.333-.017.332-.023.331-.027.332-.033.33-.038.33-.043.33-.048.328-.054.328-.059.326-.063.326-.069.325-.074.323-.08.322-.084.321-.089.319-.094.317-.1.317-.1.314-.109.313-.114.31-.119.309-.124.307-.129.305-.133.3-.139.3-.143.3-.147.3-.153.293-.157.291-.162.289-.166.285-.171.283-.175.281-.179.277-.184.274-.189.272-.192.268-.2.266-.2.262-.205.258-.209.256-.214.252-.217.249-.221.245-.225.242-.229.238-.233Z"/><path class="i" d="M38.047,56.727a3.385,3.385,0,1,0-1,2.39,3.387,3.387,0,0,0,1-2.39"/><path class="h" d="M45.678,24.835a21.407,21.407,0,0,1,8.033,1.14,19.737,19.737,0,0,1,8.014,5.4,22.505,22.505,0,0,1,1.8,2.462,20.335,20.335,0,0,1,1.888,3.727,17.769,17.769,0,0,1,1.13,8.292c-1.357.459-.829.3-1.357.459a34.127,34.127,0,0,0-2.969-6.375,35.672,35.672,0,0,0-4.794-6.1,37.819,37.819,0,0,0-5.552-4.434A35.6,35.6,0,0,0,45.205,26.2a12.489,12.489,0,0,1,.473-1.365"/><path class="h" d="M34.334,30c-.007.736.037,3.022.037,3.022a23.835,23.835,0,0,1,7.184,1.046A24.3,24.3,0,0,1,51.8,40.361a18.657,18.657,0,0,1,1.78,2.091,22.983,22.983,0,0,1,3.138,5.616,25.392,25.392,0,0,1,1.628,9.095c2.042.1,3.308.064,3.308.064l2.669-3.813a33.957,33.957,0,0,0-2.5-9.143,31.05,31.05,0,0,0-5.111-7.814A34.455,34.455,0,0,0,46.5,29.284a30.835,30.835,0,0,0-7.793-2.2A22.167,22.167,0,0,0,34.334,30"/><path class="h" d="M48.822,62.116c.86.4,3.36,1.21,3.36,1.21l3.1-1.114a20.369,20.369,0,0,0,.706-4.738,22.667,22.667,0,0,0-.929-6.96,17.255,17.255,0,0,0-1.117-2.952,22.4,22.4,0,0,0-5.059-6.756,18.655,18.655,0,0,0-6.176-3.86c-1.091-.4-2.024-.712-2.835-.928a18.4,18.4,0,0,0-3.668-.605,9.141,9.141,0,0,0-2.93.22c-2.1.716-5.138,2.058-5.423,7.03a7.334,7.334,0,0,0,6.837,7.425,6.83,6.83,0,0,1,3.225.865,6.376,6.376,0,0,1,3.364,5.4,6.142,6.142,0,0,1-1.66,4.752s2.258,2.136,2.471,2.193,2.176.372,3.182.578a13.933,13.933,0,0,0,2.073-5.384,16.519,16.519,0,0,0,0-3.722,11.85,11.85,0,0,0-.969-3.238,14.56,14.56,0,0,0-2.781-4A12.841,12.841,0,0,0,37.4,44.205a12.771,12.771,0,0,0-2.257-.288,1.069,1.069,0,0,1-.979-.493,1.115,1.115,0,0,1-.194-.861,1.217,1.217,0,0,1,.617-.849,1.9,1.9,0,0,1,1.175-.121c.432.043.965.089,1.541.193a15.514,15.514,0,0,1,4.755,1.7A14.609,14.609,0,0,1,45.1,45.674a18.364,18.364,0,0,1,2.512,3.139c.031.05.089.146.119.2a16.535,16.535,0,0,1,1.568,3.748,14.72,14.72,0,0,1,.512,4.582,14.474,14.474,0,0,1-.2,2.489,9.945,9.945,0,0,1-.785,2.287"/><line class="g" x2="62.048" transform="translate(13.449 67.052)"/><path class="e" d="M19.688,68.3s-2.28,11.816,26.327,11.816S72.342,68.3,72.342,68.3Z"/><rect class="j" width="36.061" height="1.802" transform="translate(16.209 64.377)"/><rect class="j" width="1.493" height="29.883" transform="translate(0 39.25) rotate(-30)"/><path class="g" d="M65.14,50.637S62.124,59.3,55.1,60.1c-8.23.936-9.389.543-9.389.543"/><path class="f" d="M44.861,59.094a1.722,1.722,0,0,1-.368,2.852,9,9,0,0,1-6.167.533c-4.9-1.175-2.877-5.811.232-5.771a12.026,12.026,0,0,1,6.3,2.386"/><path class="g" d="M44.861,59.094a1.722,1.722,0,0,1-.368,2.852,9,9,0,0,1-6.167.533c-4.9-1.175-2.877-5.811.232-5.771A12.026,12.026,0,0,1,44.861,59.094Z"/><path class="f" d="M26.363,60.117a1.529,1.529,0,0,1,.383,2.524A7.983,7.983,0,0,1,21.613,64.6c-4.471.195-3.876-4.257-1.213-4.983a10.685,10.685,0,0,1,5.963.5"/><path class="g" d="M26.363,60.117a1.529,1.529,0,0,1,.383,2.524A7.983,7.983,0,0,1,21.613,64.6c-4.471.195-3.876-4.257-1.213-4.983A10.685,10.685,0,0,1,26.363,60.117Z"/><path class="f" d="M47.7,36.878S56.28,47.271,61.6,47.9a25.162,25.162,0,0,0,13.728-2.474l-8.192-7.693"/><path class="g" d="M47.7,36.878S56.28,47.271,61.6,47.9a25.162,25.162,0,0,0,13.728-2.474l-8.192-7.693"/><path class="f" d="M29.924,29.047s12.3,11.142,37.288,8.771c0,0-.05-14.568-4.844-17.778-5.428-3.633-18.793-6.7-23.608-2.908s-8.836,11.915-8.836,11.915"/><path class="g" d="M29.924,29.047s12.3,11.142,37.288,8.771c0,0-.05-14.568-4.844-17.778-5.428-3.633-18.793-6.7-23.608-2.908S29.924,29.047,29.924,29.047Z"/><path class="k" d="M34.33,32.012s2.489-8.216,5.994-12.178c3-3.388,13.147-3.388,13.147-3.388a11.744,11.744,0,0,1,2.351,7.783c-.123,5.022-.592,13.092-.592,13.092"/><path class="j" d="M75.116,58.666H65.647v4.1a3.04,3.04,0,0,0,3.04,3.04H72.1a3.022,3.022,0,0,0,3.021-3.021Z"/><rect class="j" width="4.152" height="0.451" transform="translate(68.394 65.728)"/><path class="l" d="M74.71,59.743h1.773a.393.393,0,0,1,.393.393v.774a2.671,2.671,0,0,1-1.059,2.129l-1.7,1.338"/><path class="e" d="M24.34,16.967a8.651,8.651,0,1,0-8.652,8.652,8.651,8.651,0,0,0,8.652-8.652"/><path class="m" d="M24.34,16.967a8.651,8.651,0,1,0-8.652,8.652A8.651,8.651,0,0,0,24.34,16.967Z"/><path class="j" d="M16.431,16.967a.742.742,0,1,0-.742.742.742.742,0,0,0,.742-.742"/><path class="j" d="M15.6,16.879h0a.3.3,0,0,0-.11.41l3.531,6.116a.3.3,0,0,0,.52-.3l-3.531-6.116a.3.3,0,0,0-.41-.11"/><path class="j" d="M15.834,17.059h0a.3.3,0,0,0,.092-.414l-2.38-3.731a.3.3,0,1,0-.506.323l2.38,3.73a.3.3,0,0,0,.414.092"/><text class="n" transform="matrix(0.841, 0.542, -0.542, 0.841, 54.382, 8.316)"><tspan x="0" y="0">idf.py</tspan></text></g></g></g></svg>