<svg xmlns="http://www.w3.org/2000/svg" xmlns:xlink="http://www.w3.org/1999/xlink" width="24" height="24" viewBox="0 0 24 24"><defs><style>.a,.f{fill:#fff;}.a{stroke:#707070;opacity:0.7;}.b,.e{fill:none;}.c{clip-path:url(#a);}.d{clip-path:url(#b);}.e{stroke:#fff;stroke-linecap:round;stroke-linejoin:round;stroke-width:1.6px;}</style><clipPath id="a"><rect class="a" width="24" height="24" transform="translate(426 352)"/></clipPath><clipPath id="b"><rect class="b" width="21.951" height="12.882" transform="translate(1.317 6)"/></clipPath></defs><g class="c" transform="translate(-426 -352)"><g transform="translate(425.683 352)"><g class="d"><path class="e" d="M22.283,15.02V9.78a.867.867,0,0,0-.838-.894h-1.92v7.028h1.92A.867.867,0,0,0,22.283,15.02Z"/><rect class="e" width="17.408" height="11.282" rx="2.575" transform="translate(2.117 6.8)"/><path class="f" d="M4.209,15.2V9.68A1.357,1.357,0,0,1,5.693,8.505h4.555A1.357,1.357,0,0,1,11.732,9.68V15.2a1.357,1.357,0,0,1-1.484,1.175H5.693A1.357,1.357,0,0,1,4.209,15.2"/></g></g></g></svg>