<svg xmlns="http://www.w3.org/2000/svg" xmlns:xlink="http://www.w3.org/1999/xlink" width="24" height="24" viewBox="0 0 24 24"><defs><style>.a{fill:none;}.b{clip-path:url(#a);}.c{fill:#fff;}</style><clipPath id="a"><rect class="a" width="24" height="24"/></clipPath></defs><g class="b"><path class="c" d="M23.182,7.624a.864.864,0,1,1-1.223,1.222,14.1,14.1,0,0,0-19.918,0A.864.864,0,0,1,.819,7.624a15.832,15.832,0,0,1,22.363,0"/><path class="c" d="M12,7.524a11.211,11.211,0,0,1,7.978,3.3.864.864,0,1,1-1.223,1.222,9.564,9.564,0,0,0-13.509,0,.865.865,0,0,1-1.223-1.223A11.2,11.2,0,0,1,12,7.521Z"/><path class="c" d="M7.222,14.024a6.763,6.763,0,0,1,9.551,0,.864.864,0,0,1-1.221,1.223,5.032,5.032,0,0,0-7.109,0,.863.863,0,0,1-1.219-1.222Z"/><path class="c" d="M12,17.734a1.559,1.559,0,1,1-1.1.454,1.557,1.557,0,0,1,1.1-.454"/><path class="c" d="M19.537,20.76a1,1,0,0,1-.707-.293L2.07,3.707A1,1,0,0,1,3.484,2.293l16.76,16.76a1,1,0,0,1-.707,1.707"/></g></svg>