<svg xmlns="http://www.w3.org/2000/svg" xmlns:xlink="http://www.w3.org/1999/xlink" viewBox="0,0,256,256" width="48px" height="48px"><g transform="translate(37.12,37.12) scale(0.71,0.71)"><g fill="#525151" fill-rule="nonzero" stroke="none" stroke-width="1" stroke-linecap="butt" stroke-linejoin="miter" stroke-miterlimit="10" stroke-dasharray="" stroke-dashoffset="0" font-family="none" font-weight="none" font-size="none" text-anchor="none" style="mix-blend-mode: normal"><path d="M128,308.28169c-99.56683,0 -180.28169,-80.71486 -180.28169,-180.28169v0c0,-99.56683 80.71486,-180.28169 180.28169,-180.28169v0c99.56683,0 180.28169,80.71486 180.28169,180.28169v0c0,99.56683 -80.71486,180.28169 -180.28169,180.28169z" id="shape"></path></g><g fill="#ffffff" fill-rule="nonzero" stroke="none" stroke-width="1" stroke-linecap="butt" stroke-linejoin="miter" stroke-miterlimit="10" stroke-dasharray="" stroke-dashoffset="0" font-family="none" font-weight="none" font-size="none" text-anchor="none" style="mix-blend-mode: normal"><g transform="scale(5.33333,5.33333)"><path d="M24,4c-3.50831,0 -6.4296,2.62143 -6.91992,6h-6.8418c-0.08516,-0.01457 -0.17142,-0.02176 -0.25781,-0.02148c-0.07465,0.00161 -0.14908,0.00879 -0.22266,0.02148h-3.25781c-0.54095,-0.00765 -1.04412,0.27656 -1.31683,0.74381c-0.27271,0.46725 -0.27271,1.04514 0,1.51238c0.27271,0.46725 0.77588,0.75146 1.31683,0.74381h2.13867l2.51758,26.0293c0.27108,2.80663 2.65553,4.9707 5.47461,4.9707h14.73633c2.81922,0 5.20364,-2.16383 5.47461,-4.9707l2.51953,-26.0293h2.13867c0.54095,0.00765 1.04412,-0.27656 1.31683,-0.74381c0.27271,-0.46725 0.27271,-1.04514 0,-1.51238c-0.27271,-0.46725 -0.77588,-0.75146 -1.31683,-0.74381h-3.25586c-0.15912,-0.02581 -0.32135,-0.02581 -0.48047,0h-6.84375c-0.49032,-3.37857 -3.41161,-6 -6.91992,-6zM24,7c1.87916,0 3.42077,1.26816 3.86133,3h-7.72266c0.44056,-1.73184 1.98217,-3 3.86133,-3zM11.65039,13h24.69727l-2.49219,25.74023c-0.12503,1.29513 -1.18751,2.25977 -2.48828,2.25977h-14.73633c-1.29892,0 -2.36336,-0.96639 -2.48828,-2.25977zM20.47656,17.97852c-0.82766,0.01293 -1.48843,0.69381 -1.47656,1.52148v15c-0.00765,0.54095 0.27656,1.04412 0.74381,1.31683c0.46725,0.27271 1.04514,0.27271 1.51238,0c0.46725,-0.27271 0.75146,-0.77588 0.74381,-1.31683v-15c0.00582,-0.40562 -0.15288,-0.7963 -0.43991,-1.08296c-0.28703,-0.28666 -0.67792,-0.44486 -1.08353,-0.43852zM27.47656,17.97852c-0.82766,0.01293 -1.48843,0.69381 -1.47656,1.52148v15c-0.00765,0.54095 0.27656,1.04412 0.74381,1.31683c0.46725,0.27271 1.04514,0.27271 1.51238,0c0.46725,-0.27271 0.75146,-0.77588 0.74381,-1.31683v-15c0.00582,-0.40562 -0.15288,-0.7963 -0.43991,-1.08296c-0.28703,-0.28666 -0.67792,-0.44486 -1.08353,-0.43852z"></path></g></g></g></svg>