<svg xmlns="http://www.w3.org/2000/svg" xmlns:xlink="http://www.w3.org/1999/xlink" width="24" height="24" viewBox="0 0 24 24"><defs><style>.a,.d{fill:none;}.b{clip-path:url(#a);}.c{clip-path:url(#b);}.d{stroke:#fff;stroke-linecap:round;stroke-linejoin:round;stroke-width:1.6px;}.e{opacity:0;}.f{clip-path:url(#c);}.g{fill:#38393a;}</style><clipPath id="a"><rect class="a" width="24" height="24"/></clipPath><clipPath id="b"><rect class="a" width="21.951" height="12.882" transform="translate(1.317 6)"/></clipPath><clipPath id="c"><rect class="a" width="13.417" height="7.87" transform="translate(4.209 8.505)"/></clipPath></defs><g class="b"><g class="c"><path class="d" d="M22.283,15.02V9.78a.867.867,0,0,0-.838-.894h-1.92v7.028h1.92A.867.867,0,0,0,22.283,15.02Z"/><rect class="d" width="17.408" height="11.282" rx="2.575" transform="translate(2.117 6.8)"/><g class="e"><g class="f"><path class="g" d="M4.209,15.2V9.68A1.357,1.357,0,0,1,5.693,8.505H16.141A1.358,1.358,0,0,1,17.626,9.68V15.2a1.358,1.358,0,0,1-1.485,1.175H5.693A1.357,1.357,0,0,1,4.209,15.2"/></g></g></g></g></svg>