<svg xmlns="http://www.w3.org/2000/svg" xmlns:xlink="http://www.w3.org/1999/xlink" width="24" height="24" viewBox="0 0 24 24"><defs><style>.a{fill:none;}.b{clip-path:url(#a);}.c{fill:#fff;}</style><clipPath id="a"><rect class="a" width="24" height="24"/></clipPath></defs><g class="b"><path class="c" d="M12,17.734a1.56,1.56,0,1,1-1.1.454,1.559,1.559,0,0,1,1.1-.454M23.181,7.624a.864.864,0,0,1-1.223,1.222,14.1,14.1,0,0,0-19.918,0A.864.864,0,0,1,.819,7.624a15.831,15.831,0,0,1,22.362,0M12,7.524a11.213,11.213,0,0,1,7.978,3.3.865.865,0,0,1-1.224,1.222,9.564,9.564,0,0,0-13.509,0,.865.865,0,0,1-1.222-1.223A11.2,11.2,0,0,1,12,7.521Zm-4.778,6.5a6.763,6.763,0,0,1,9.551,0,.864.864,0,0,1-1.221,1.223,5.032,5.032,0,0,0-7.109,0,.863.863,0,0,1-1.219-1.222Z"/></g></svg>